<svg width="248" height="35" viewBox="0 0 248 35" fill="none" xmlns="http://www.w3.org/2000/svg">
<path d="M5.33008 1.40625L13.6973 22.2891L22.0645 1.40625H26.4414V27H23.0664V17.0332L23.3828 6.27539L14.9805 27H12.3965L4.01172 6.32812L4.3457 17.0332V27H0.970703V1.40625H5.33008ZM31.0293 17.3145C31.0293 15.4512 31.3926 13.7754 32.1191 12.2871C32.8574 10.7988 33.877 9.65039 35.1777 8.8418C36.4902 8.0332 37.9844 7.62891 39.6602 7.62891C42.25 7.62891 44.3418 8.52539 45.9355 10.3184C47.541 12.1113 48.3438 14.4961 48.3438 17.4727V17.7012C48.3438 19.5527 47.9863 21.2168 47.2715 22.6934C46.5684 24.1582 45.5547 25.3008 44.2305 26.1211C42.918 26.9414 41.4062 27.3516 39.6953 27.3516C37.1172 27.3516 35.0254 26.4551 33.4199 24.6621C31.8262 22.8691 31.0293 20.4961 31.0293 17.543V17.3145ZM34.2988 17.7012C34.2988 19.8105 34.7852 21.5039 35.7578 22.7812C36.7422 24.0586 38.0547 24.6973 39.6953 24.6973C41.3477 24.6973 42.6602 24.0527 43.6328 22.7637C44.6055 21.4629 45.0918 19.6465 45.0918 17.3145C45.0918 15.2285 44.5938 13.541 43.5977 12.252C42.6133 10.9512 41.3008 10.3008 39.6602 10.3008C38.0547 10.3008 36.7598 10.9395 35.7754 12.2168C34.791 13.4941 34.2988 15.3223 34.2988 17.7012ZM61.6152 10.8984C61.123 10.8164 60.5898 10.7754 60.0156 10.7754C57.8828 10.7754 56.4355 11.6836 55.6738 13.5V27H52.4219V7.98047H55.5859L55.6387 10.1777C56.7051 8.47852 58.2168 7.62891 60.1738 7.62891C60.8066 7.62891 61.2871 7.71094 61.6152 7.875V10.8984ZM63.4961 17.332C63.4961 14.3672 64.1816 12.0117 65.5527 10.2656C66.9238 8.50781 68.7402 7.62891 71.002 7.62891C73.3223 7.62891 75.1328 8.44922 76.4336 10.0898L76.5918 7.98047H79.5625V26.543C79.5625 29.0039 78.8301 30.9434 77.3652 32.3613C75.9121 33.7793 73.9551 34.4883 71.4941 34.4883C70.123 34.4883 68.7812 34.1953 67.4688 33.6094C66.1562 33.0234 65.1543 32.2207 64.4629 31.2012L66.1504 29.25C67.5449 30.9727 69.25 31.834 71.2656 31.834C72.8477 31.834 74.0781 31.3887 74.957 30.498C75.8477 29.6074 76.293 28.3535 76.293 26.7363V25.1016C74.9922 26.6016 73.2168 27.3516 70.9668 27.3516C68.7402 27.3516 66.9355 26.4551 65.5527 24.6621C64.1816 22.8691 63.4961 20.4258 63.4961 17.332ZM66.7656 17.7012C66.7656 19.8457 67.2051 21.5332 68.084 22.7637C68.9629 23.9824 70.1934 24.5918 71.7754 24.5918C73.8262 24.5918 75.332 23.6602 76.293 21.7969V13.1133C75.2969 11.2969 73.8027 10.3887 71.8105 10.3887C70.2285 10.3887 68.9922 11.0039 68.1016 12.2344C67.2109 13.4648 66.7656 15.2871 66.7656 17.7012ZM96.2266 27C96.0391 26.625 95.8867 25.957 95.7695 24.9961C94.2578 26.5664 92.4531 27.3516 90.3555 27.3516C88.4805 27.3516 86.9395 26.8242 85.7324 25.7695C84.5371 24.7031 83.9395 23.3555 83.9395 21.7266C83.9395 19.7461 84.6895 18.2109 86.1895 17.1211C87.7012 16.0195 89.8223 15.4688 92.5527 15.4688H95.7168V13.9746C95.7168 12.8379 95.377 11.9355 94.6973 11.2676C94.0176 10.5879 93.0156 10.248 91.6914 10.248C90.5312 10.248 89.5586 10.541 88.7734 11.127C87.9883 11.7129 87.5957 12.4219 87.5957 13.2539H84.3262C84.3262 12.3047 84.6602 11.3906 85.3281 10.5117C86.0078 9.62109 86.9219 8.91797 88.0703 8.40234C89.2305 7.88672 90.502 7.62891 91.8848 7.62891C94.0762 7.62891 95.793 8.17969 97.0352 9.28125C98.2773 10.3711 98.9219 11.877 98.9688 13.7988V22.5527C98.9688 24.2988 99.1914 25.6875 99.6367 26.7188V27H96.2266ZM90.8301 24.5215C91.8496 24.5215 92.8164 24.2578 93.7305 23.7305C94.6445 23.2031 95.3066 22.5176 95.7168 21.6738V17.7715H93.168C89.1836 17.7715 87.1914 18.9375 87.1914 21.2695C87.1914 22.2891 87.5312 23.0859 88.2109 23.6602C88.8906 24.2344 89.7637 24.5215 90.8301 24.5215ZM107.143 7.98047L107.248 10.3711C108.701 8.54297 110.6 7.62891 112.943 7.62891C116.963 7.62891 118.99 9.89648 119.025 14.4316V27H115.773V14.4141C115.762 13.043 115.445 12.0293 114.824 11.373C114.215 10.7168 113.26 10.3887 111.959 10.3887C110.904 10.3887 109.979 10.6699 109.182 11.2324C108.385 11.7949 107.764 12.5332 107.318 13.4473V27H104.066V7.98047H107.143ZM140.91 15.5918C138.016 14.7598 135.906 13.7402 134.582 12.5332C133.27 11.3145 132.613 9.81445 132.613 8.0332C132.613 6.01758 133.416 4.35352 135.021 3.04102C136.639 1.7168 138.736 1.05469 141.314 1.05469C143.072 1.05469 144.637 1.39453 146.008 2.07422C147.391 2.75391 148.457 3.69141 149.207 4.88672C149.969 6.08203 150.35 7.38867 150.35 8.80664H146.957C146.957 7.25977 146.465 6.04688 145.48 5.16797C144.496 4.27734 143.107 3.83203 141.314 3.83203C139.65 3.83203 138.35 4.20117 137.412 4.93945C136.486 5.66602 136.023 6.67969 136.023 7.98047C136.023 9.02344 136.463 9.9082 137.342 10.6348C138.232 11.3496 139.738 12.0059 141.859 12.6035C143.992 13.2012 145.656 13.8633 146.852 14.5898C148.059 15.3047 148.949 16.1426 149.523 17.1035C150.109 18.0645 150.402 19.1953 150.402 20.4961C150.402 22.5703 149.594 24.2344 147.977 25.4883C146.359 26.7305 144.197 27.3516 141.49 27.3516C139.732 27.3516 138.092 27.0176 136.568 26.3496C135.045 25.6699 133.867 24.7441 133.035 23.5723C132.215 22.4004 131.805 21.0703 131.805 19.582H135.197C135.197 21.1289 135.766 22.3535 136.902 23.2559C138.051 24.1465 139.58 24.5918 141.49 24.5918C143.271 24.5918 144.637 24.2285 145.586 23.502C146.535 22.7754 147.01 21.7852 147.01 20.5312C147.01 19.2773 146.57 18.3105 145.691 17.6309C144.812 16.9395 143.219 16.2598 140.91 15.5918ZM158.646 3.375V7.98047H162.197V10.4941H158.646V22.2891C158.646 23.0508 158.805 23.625 159.121 24.0117C159.438 24.3867 159.977 24.5742 160.738 24.5742C161.113 24.5742 161.629 24.5039 162.285 24.3633V27C161.43 27.2344 160.598 27.3516 159.789 27.3516C158.336 27.3516 157.24 26.9121 156.502 26.0332C155.764 25.1543 155.395 23.9062 155.395 22.2891V10.4941H151.932V7.98047H155.395V3.375H158.646ZM177.754 27C177.566 26.625 177.414 25.957 177.297 24.9961C175.785 26.5664 173.98 27.3516 171.883 27.3516C170.008 27.3516 168.467 26.8242 167.26 25.7695C166.064 24.7031 165.467 23.3555 165.467 21.7266C165.467 19.7461 166.217 18.2109 167.717 17.1211C169.229 16.0195 171.35 15.4688 174.08 15.4688H177.244V13.9746C177.244 12.8379 176.904 11.9355 176.225 11.2676C175.545 10.5879 174.543 10.248 173.219 10.248C172.059 10.248 171.086 10.541 170.301 11.127C169.516 11.7129 169.123 12.4219 169.123 13.2539H165.854C165.854 12.3047 166.188 11.3906 166.855 10.5117C167.535 9.62109 168.449 8.91797 169.598 8.40234C170.758 7.88672 172.029 7.62891 173.412 7.62891C175.604 7.62891 177.32 8.17969 178.562 9.28125C179.805 10.3711 180.449 11.877 180.496 13.7988V22.5527C180.496 24.2988 180.719 25.6875 181.164 26.7188V27H177.754ZM172.357 24.5215C173.377 24.5215 174.344 24.2578 175.258 23.7305C176.172 23.2031 176.834 22.5176 177.244 21.6738V17.7715H174.695C170.711 17.7715 168.719 18.9375 168.719 21.2695C168.719 22.2891 169.059 23.0859 169.738 23.6602C170.418 24.2344 171.291 24.5215 172.357 24.5215ZM188.67 7.98047L188.775 10.3711C190.229 8.54297 192.127 7.62891 194.471 7.62891C198.49 7.62891 200.518 9.89648 200.553 14.4316V27H197.301V14.4141C197.289 13.043 196.973 12.0293 196.352 11.373C195.742 10.7168 194.787 10.3887 193.486 10.3887C192.432 10.3887 191.506 10.6699 190.709 11.2324C189.912 11.7949 189.291 12.5332 188.846 13.4473V27H185.594V7.98047H188.67ZM208.99 27H205.738V0H208.99V27ZM222.104 27.3516C219.525 27.3516 217.428 26.5078 215.811 24.8203C214.193 23.1211 213.385 20.8535 213.385 18.0176V17.4199C213.385 15.5332 213.742 13.8516 214.457 12.375C215.184 10.8867 216.191 9.72656 217.48 8.89453C218.781 8.05078 220.188 7.62891 221.699 7.62891C224.172 7.62891 226.094 8.44336 227.465 10.0723C228.836 11.7012 229.521 14.0332 229.521 17.0684V18.4219H216.637C216.684 20.2969 217.229 21.8145 218.271 22.9746C219.326 24.123 220.662 24.6973 222.279 24.6973C223.428 24.6973 224.4 24.4629 225.197 23.9941C225.994 23.5254 226.691 22.9043 227.289 22.1309L229.275 23.6777C227.682 26.127 225.291 27.3516 222.104 27.3516ZM221.699 10.3008C220.387 10.3008 219.285 10.7812 218.395 11.7422C217.504 12.6914 216.953 14.0273 216.742 15.75H226.27V15.5039C226.176 13.8516 225.73 12.5742 224.934 11.6719C224.137 10.7578 223.059 10.3008 221.699 10.3008ZM239.277 22.2363L243.707 7.98047H247.188L239.541 29.9355C238.357 33.0996 236.477 34.6816 233.898 34.6816L233.283 34.6289L232.07 34.4004V31.7637L232.949 31.834C234.051 31.834 234.906 31.6113 235.516 31.166C236.137 30.7207 236.646 29.9062 237.045 28.7227L237.766 26.7891L230.98 7.98047H234.531L239.277 22.2363Z" fill="black" fill-opacity="0.9"/>
</svg>
